HIERARCHY
ROOT Hips
{
	OFFSET -3.958830 18.904000 13.208200
	CHANNELS 6 Xposition Yposition Zposition Zrotation Yrotation Xrotation 
	JOINT LHipJoint
	{
		OFFSET 0.000000 0.000000 0.000000
		CHANNELS 3 Zrotation Yrotation Xrotation
		JOINT LeftUpLeg
		{
			OFFSET 1.800000 -1.400000 0.085000
			CHANNELS 3 Zrotation Yrotation Xrotation
			JOINT LeftLeg
			{
				OFFSET 2.215000 -6.000000 0.000000
				CHANNELS 3 Zrotation Yrotation Xrotation
				JOINT LeftFoot
				{
					OFFSET 2.500000 -6.900000 0.000000
					CHANNELS 3 Zrotation Yrotation Xrotation
					JOINT LeftToeBase
					{
						OFFSET 0.200000 -0.500000 1.950000
						CHANNELS 3 Zrotation Yrotation Xrotation
						End Site
						{
							OFFSET 0.000000 0.000000 0.000000
						}
					}
				}
			}
		}
	}
	JOINT RHipJoint
	{
		OFFSET 0.000000 0.000000 0.000000
		CHANNELS 3 Zrotation Yrotation Xrotation
		JOINT RightUpLeg
		{
			OFFSET -1.800000 -1.400000 0.085000
			CHANNELS 3 Zrotation Yrotation Xrotation
			JOINT RightLeg
			{
				OFFSET -2.215000 -6.000000 0.000000
				CHANNELS 3 Zrotation Yrotation Xrotation
				JOINT RightFoot
				{
					OFFSET -2.500000 -6.900000 0.000000
					CHANNELS 3 Zrotation Yrotation Xrotation
					JOINT RightToeBase
					{
						OFFSET -0.200000 -0.500000 1.950000
						CHANNELS 3 Zrotation Yrotation Xrotation
						End Site
						{
							OFFSET 0.000000 0.000000 0.000000
						}
					}
				}
			}
		}
	}
	JOINT LowerBack
	{
		OFFSET 0.000000 0.000000 0.000000
		CHANNELS 3 Zrotation Yrotation Xrotation
		JOINT Spine
		{
			OFFSET -0.087000 1.940000 -0.288900
			CHANNELS 3 Zrotation Yrotation Xrotation
			JOINT Spine1
			{
				OFFSET 0.000000 1.950000 0.060000
				CHANNELS 3 Zrotation Yrotation Xrotation
				JOINT Neck
				{
					OFFSET 0.000000 0.000000 0.000000
					CHANNELS 3 Zrotation Yrotation Xrotation
					JOINT Neck1
					{
						OFFSET 0.000000 1.600000 0.340000
						CHANNELS 3 Zrotation Yrotation Xrotation
						JOINT Head
						{
							OFFSET 0.000000 1.667000 -0.240000
							CHANNELS 3 Zrotation Yrotation Xrotation
							End Site
							{
								OFFSET 0.000000 0.000000 0.000000
							}
						}
					}
				}
				JOINT LeftShoulder
				{
					OFFSET 0.000000 0.000000 0.000000
					CHANNELS 3 Zrotation Yrotation Xrotation
					JOINT LeftArm
					{
						OFFSET 2.700000 1.550000 -0.730000
						CHANNELS 3 Zrotation Yrotation Xrotation
						JOINT LeftForeArm
						{
							OFFSET 5.450000 0.000000 0.000000
							CHANNELS 3 Zrotation Yrotation Xrotation
							JOINT LeftHand
							{
								OFFSET 3.450000 0.000000 0.000000
								CHANNELS 3 Zrotation Yrotation Xrotation
								JOINT LeftHandIndex1
								{
									OFFSET 0.750000 0.000000 0.000000
									CHANNELS 3 Zrotation Yrotation Xrotation
									End Site
									{
										OFFSET 0.000000 0.000000 0.000000
									}
								}
							}
						}
					}
				}
				JOINT RightShoulder
				{
					OFFSET 0.000000 0.000000 0.000000
					CHANNELS 3 Zrotation Yrotation Xrotation
					JOINT RightArm
					{
						OFFSET -2.700000 1.550000 -0.730000
						CHANNELS 3 Zrotation Yrotation Xrotation
						JOINT RightForeArm
						{
							OFFSET -5.450000 0.000000 0.000000
							CHANNELS 3 Zrotation Yrotation Xrotation
							JOINT RightHand
							{
								OFFSET -3.450000 0.000000 0.000000
								CHANNELS 3 Zrotation Yrotation Xrotation
								JOINT RightHandIndex1
								{
									OFFSET -0.750000 0.000000 0.000000
									CHANNELS 3 Zrotation Yrotation Xrotation
									End Site
									{
										OFFSET 0.000000 0.000000 0.000000
									}
								}
							}
						}
					}
				}
			}
		}
	}
}
MOTION
Frames: 9
Frame Time: 0.016667
0.896340 14.898630 -2.313680 -22.426125 0.171933 60.365848 -16.143908 6.286428 9.065340 -15.949658 -37.981825 -78.723044 17.446025 1.199761 58.494767 1.221386 8.481506 1.492872 1.115400 0.703420 1.140270 18.785137 -4.787259 5.456069 -28.896457 0.877577 -71.040465 11.538143 -11.903020 43.391728 -1.342575 -7.281131 1.515720 -0.201730 -0.512560 0.681430 -3.142843 -1.436880 -11.640180 2.929882 5.019898 65.172186 -11.679509 3.367920 -7.596329 6.158051 4.836226 -16.161687 8.736135 0.015303 56.260002 0.236090 6.812810 -20.765540 1.145427 -48.855494 6.030565 13.624063 -24.967267 -8.028375 10.719844 1.665064 -1.746633 -3.862594 3.066247 0.685890 -0.396390 0.639340 0.116170 -12.544354 46.075600 -13.217134 10.883393 43.818905 -11.128856 -17.311463 50.871031 -8.428307 2.719819 -1.452052 0.695150 -0.488060 -0.506710 -0.166220 
0.864640 14.875580 -2.312460 -21.376052 0.245206 59.828095 -16.186105 6.315889 9.133816 -14.842639 -38.334987 -78.574095 15.581894 2.018799 58.500262 1.199240 8.399606 1.502341 1.105770 0.688340 1.130390 18.748666 -4.760088 5.374734 -28.017587 -0.053965 -71.464855 9.623636 -11.005424 41.495185 -1.255724 -6.871335 1.630235 -0.216480 -0.525460 0.694300 -3.033901 -1.653961 -11.635248 1.867301 5.544785 65.421495 -10.314881 3.050810 -8.285861 5.878928 5.205875 -15.892000 9.647937 -0.113222 56.626147 0.895570 7.048430 -20.852010 0.845710 -48.932654 6.109347 12.385199 -25.094794 -7.701075 11.064571 1.620363 -1.727558 -3.840748 3.116642 0.703880 -0.402610 0.643410 0.100840 -11.800595 46.030563 -13.294632 11.307849 44.374010 -10.922252 -16.096566 53.962727 -8.400898 2.649334 -1.500928 0.699120 -0.519260 -0.496220 -0.173300 
0.764120 14.833620 -2.331840 -19.037756 1.172466 59.524178 -16.242246 6.396225 9.123503 -11.042270 -38.858945 -78.980667 9.039470 5.020163 58.475920 1.173501 8.404932 1.499932 1.087880 0.672290 1.103350 18.696856 -4.674370 5.331196 -27.711812 -2.291808 -72.516328 6.797675 -10.035015 38.499590 -1.141379 -6.461749 1.734440 -0.201750 -0.497470 0.713020 -2.853718 -2.041068 -11.625487 0.385173 6.043391 64.330551 -8.146823 2.629440 -7.952969 5.627149 5.901573 -14.907521 11.374801 -0.001980 54.710559 0.774340 7.641860 -19.576030 0.189229 -48.903831 6.279691 11.991408 -25.286197 -7.397221 10.689422 1.118825 -1.690799 -3.849554 3.178891 0.672070 -0.360800 0.609620 0.095190 -10.808780 45.792999 -13.614595 11.813489 45.472493 -10.065496 -14.779298 58.295710 -8.609968 2.566740 -1.595474 0.687900 -0.544650 -0.476330 -0.174510 
0.673340 14.798430 -2.373390 -18.232215 2.565772 60.049438 -16.250368 6.507512 8.830119 -4.495916 -38.165235 -81.879854 1.597395 8.731868 58.857710 1.312303 8.877465 1.339328 1.123260 0.726840 1.119560 18.675871 -4.526300 5.580933 -27.505592 -3.170679 -75.680402 5.659118 -9.836387 37.737041 -1.128676 -6.477429 1.709589 -0.184600 -0.501960 0.783200 -2.750450 -2.228904 -11.594034 -0.023239 6.282560 62.057082 -7.166794 3.052300 -7.192691 5.922820 7.511123 -13.937165 15.127930 -0.733544 52.223554 -0.505230 8.684570 -17.759710 -0.388664 -48.707196 6.640443 12.233493 -26.383750 -7.430276 10.931401 1.415185 -1.650572 -3.880202 3.321263 0.585090 -0.303490 0.604730 0.103610 -10.853225 44.829518 -13.867302 12.141050 46.257500 -9.098766 -16.438921 64.188271 -10.867865 2.532824 -1.707575 0.756150 -0.644580 -0.510490 -0.148510 
0.605860 14.745400 -2.395000 -16.754873 4.920282 59.791686 -16.211124 6.637337 8.564791 0.444931 -38.271834 -82.275954 -8.462719 12.414892 55.575099 1.438822 9.080358 1.301809 1.158010 0.791600 1.122920 18.684994 -4.528820 5.702428 -28.454169 -5.260098 -76.151276 7.174586 -10.635583 36.280072 -1.143663 -6.728894 1.624099 -0.146680 -0.489300 0.799630 -2.748774 -2.296573 -11.572297 1.490508 4.478842 60.774771 -7.123953 2.698668 -5.988438 6.477690 7.808581 -12.880520 16.015412 -0.670158 50.868747 -1.462460 8.987800 -16.781470 -0.987706 -48.391367 7.083117 12.373586 -27.183248 -7.355513 10.712657 1.225749 -1.583266 -3.857089 3.407116 0.517600 -0.266070 0.591640 0.128380 -11.358067 44.208344 -14.474305 11.846034 47.383511 -7.455067 -20.488476 68.682983 -14.201594 2.519255 -1.719425 0.787440 -0.667960 -0.542020 -0.120980 
0.539890 14.707870 -2.387430 -14.778825 5.339561 58.415098 -16.227123 6.988463 8.155862 5.759157 -37.145222 -81.507324 -20.264485 16.018382 49.860024 1.624426 9.368617 1.251692 1.195810 0.850280 1.146310 18.622934 -4.488268 5.782284 -30.842853 -7.708868 -74.427437 10.225482 -11.309257 32.916423 -1.159071 -6.893939 1.562889 -0.113830 -0.467010 0.836540 -2.594619 -2.794429 -11.474752 0.111754 5.007968 60.970795 -5.660398 2.518653 -4.548449 6.902900 8.311492 -11.756742 17.147634 -0.126095 49.110904 -2.686980 9.991560 -16.533540 -1.548232 -47.963453 6.886346 13.070728 -28.041282 -7.630451 10.510797 1.321116 -1.574261 -3.876695 3.468777 0.456350 -0.219330 0.589690 0.151240 -11.504728 44.033868 -14.632718 9.256865 48.444452 -6.996753 -28.258984 72.651802 -19.846420 2.482690 -1.675105 0.820740 -0.681790 -0.567910 -0.099370 
0.509500 14.665070 -2.375620 -15.458643 5.458122 56.857042 -16.230744 7.312089 7.855737 8.990950 -34.465591 -79.534205 -29.053572 16.978156 42.909983 1.602913 9.060554 1.338347 1.280460 0.984000 1.192840 18.564079 -4.570981 5.752995 -31.993963 -7.714513 -71.874652 13.077795 -11.537440 30.869899 -1.178302 -6.912897 1.541754 -0.023280 -0.467030 0.863570 -2.475208 -3.072862 -11.318106 -0.557463 5.963428 60.251159 -4.205935 3.377394 -1.721828 7.279876 8.197801 -10.333209 16.975236 0.832708 47.724905 -4.199000 10.955550 -18.138350 -0.858323 -46.161684 6.361375 13.328242 -29.677671 -7.269705 9.852943 1.762672 -1.529642 -3.892268 3.513452 0.409530 -0.183110 0.606540 0.175120 -12.690978 43.152094 -14.073317 5.665888 48.647714 -8.122870 -42.504391 76.200642 -30.322714 2.342651 -1.407465 0.851200 -0.674940 -0.606020 -0.083460 
0.489640 14.643680 -2.325250 -13.376883 5.465142 55.700048 -16.277613 7.483045 7.728281 10.208484 -34.823779 -77.390156 -33.971783 16.919463 39.082212 1.596425 8.763344 1.414176 1.350900 1.083980 1.234370 18.512318 -4.496584 5.683982 -36.289757 -10.490775 -65.656939 18.451746 -12.243166 25.894745 -1.264168 -7.193974 1.433007 0.024730 -0.518890 0.872010 -2.318685 -3.565282 -11.300717 -2.729055 6.337164 60.891298 -2.469989 2.659051 -0.422499 7.033618 8.023242 -9.560460 16.681104 1.726481 48.451325 -4.388720 11.945160 -20.879520 -0.501138 -45.091804 5.779769 13.016225 -30.305619 -7.121146 10.078020 2.271749 -1.510593 -3.827515 3.559797 0.441900 -0.217430 0.664050 0.191160 -12.456724 42.341334 -13.384249 3.258550 50.170677 -8.315113 -52.688457 76.846707 -36.719439 2.193347 -1.017361 0.874660 -0.680390 -0.646980 -0.083980 
0.501640 14.644350 -2.273840 -12.090512 5.497179 54.875537 -16.271373 7.428720 7.883057 10.415014 -36.220650 -77.040771 -31.005238 16.935588 42.152816 1.650795 8.866276 1.347519 1.436250 1.209750 1.266090 18.526701 -4.598368 5.487588 -38.622555 -11.841661 -59.708730 21.099965 -12.403745 22.541482 -1.334552 -7.272164 1.385668 0.058520 -0.593970 0.896930 -2.359999 -3.567060 -11.312681 -3.220459 5.522833 62.004049 -2.561038 1.946503 0.384158 6.592006 6.924539 -9.349585 14.447697 3.096962 49.781997 -3.508070 12.382040 -24.113560 0.680072 -44.733541 5.498790 12.435765 -29.742018 -6.993474 10.626949 2.166006 -1.464928 -3.724107 3.636245 0.476610 -0.285240 0.756400 0.222230 -12.847726 42.094629 -13.230622 2.086616 50.731710 -8.607902 -58.806603 76.656976 -40.270627 2.120143 -0.728952 0.938810 -0.712960 -0.710300 -0.052210 
